<svg xmlns="http://www.w3.org/2000/svg">
  <symbol viewBox="0 0 31 41" id="rub-bold">
    <path d="M17.9.8c4.1 0 7.3 1.1 9.6 3.3 2.3 2.2 3.5 5.1 3.5 8.7 0 3.6-1.2 6.5-3.5 8.7a13.5 13.5 0 01-9.6 3.3H9.6v11.8l4.4.8v3.4H0v-3.4l4.4-.8V5L0 4.3V.8h17.9zM9.6 20.5H18c2.6 0 4.6-.7 5.9-2.1a8 8 0 002-5.6 8 8 0 00-2-5.5c-1.3-1.5-3.3-2.2-6-2.2H9.7v15.4z"/>
    <path d="M.2 28.2h28.7v3.2H.2z"/>
  </symbol>

  <symbol viewBox="0 0 21 26" id="rub-faded">
    <path fill-rule="evenodd" clip-rule="evenodd" d="M20.2 7.6c0 1.3-.4 2.6-1.2 3.6-.8 1.4-3.4 2.6-3.4 2.6-1 .4-2 .6-3.2.6H6v2.5h14v2H6v5.2l2.9.2v1.5H1.1v-1.5l2.9-.2v-5.2H1v-2h3V2.6L1 2.3V.8h10.6c2.2-.1 4.5.5 6.3 1.8a6.1 6.1 0 012.2 5zM16.5 4c-1.4-1-3.1-1.4-4.8-1.3H6v10h5.4c2.3 0 4-.4 5-1.3 1.1-1 1.7-2.3 1.7-3.7 0-1.4-.5-2.8-1.6-3.7z" fill="#8b89ff"/>
  </symbol>

  <symbol viewBox="0 0 19 29" id="rub-regular">
    <path fill-rule="evenodd" clip-rule="evenodd" d="M19 8c0 1.4-.4 2.8-1.2 4-.8 1.7-3.4 3-3.4 3a7 7 0 01-3 .7H5v3h13.8V21H5v6l2.8.3V29H.1v-1.7L3 27v-6H0v-2.3h3V2L0 1.8V0h10.5c2.2-.1 4.4.6 6.2 2A7.7 7.7 0 0119 8zm-3.7-4.4A6.5 6.5 0 0010.6 2H5v11.6h5.4c2.2 0 3.9-.5 5-1.6 1-1 1.6-2.6 1.5-4.2 0-1.6-.5-3.2-1.6-4.3z"/>
  </symbol>
</svg>
